<svg id="svg" version="1.1" xmlns="http://www.w3.org/2000/svg" xmlns:xlink="http://www.w3.org/1999/xlink" width="400" height="400" viewBox="0, 0, 400,400"><g id="svgg"><path id="path0" d="M213.093 186.802 C 213.009 187.038,206.998 211.019,199.735 240.094 C 192.471 269.170,186.442 293.045,186.336 293.151 C 185.869 293.618,185.240 291.260,178.641 264.313 C 174.808 248.662,171.539 235.723,171.375 235.559 C 170.798 234.983,170.487 235.894,168.384 244.308 L 166.269 252.769 109.442 252.847 L 52.615 252.925 52.615 256.155 L 52.615 259.385 70.876 259.385 L 89.136 259.385 140.753 311.231 C 169.143 339.746,192.530 363.077,192.724 363.077 C 193.206 363.077,302.462 253.790,302.462 253.307 C 302.462 253.003,296.467 252.923,273.578 252.923 L 244.694 252.923 243.369 250.000 C 242.640 248.392,241.895 247.077,241.714 247.077 C 241.533 247.078,237.733 251.099,233.270 256.014 C 228.808 260.928,225.005 264.899,224.820 264.837 C 224.618 264.770,222.309 249.068,219.073 225.758 C 213.965 188.970,213.470 185.743,213.093 186.802 " stroke="none" fill="#ec7c24" fill-rule="evenodd"></path><path id="path1" d="M186.308 37.247 C 179.327 37.692,170.164 38.455,167.846 38.783 C 166.662 38.950,164.654 39.231,163.385 39.406 C 162.115 39.581,160.315 39.851,159.385 40.005 C 158.454 40.160,156.377 40.499,154.769 40.759 C 151.804 41.237,149.458 41.676,147.231 42.168 C 146.554 42.318,144.962 42.666,143.692 42.941 C 116.346 48.875,101.471 55.068,84.987 67.383 C 73.977 75.608,68.553 83.237,65.516 94.769 C 63.688 101.713,64.001 116.111,66.165 124.615 C 66.316 125.208,66.661 126.662,66.933 127.846 C 67.488 130.267,67.534 130.420,69.213 135.538 C 70.547 139.606,72.274 144.193,73.415 146.701 C 73.821 147.595,74.154 148.384,74.154 148.454 C 74.154 148.525,74.659 149.632,75.277 150.915 L 76.399 153.248 75.778 153.931 C 71.532 158.607,65.274 172.866,63.055 182.923 C 60.165 196.019,61.512 214.744,66.130 225.692 C 66.273 226.031,66.776 227.277,67.247 228.462 C 68.230 230.930,70.841 236.281,72.276 238.769 C 72.813 239.700,73.398 240.751,73.577 241.105 L 73.900 241.748 105.181 241.953 C 122.385 242.065,141.867 242.247,148.474 242.356 L 160.486 242.556 161.351 239.509 C 161.827 237.833,162.337 236.115,162.485 235.692 C 162.719 235.019,164.106 230.209,164.969 227.077 C 165.132 226.485,165.384 225.585,165.530 225.077 C 165.675 224.569,166.087 223.115,166.445 221.846 C 166.802 220.577,167.213 219.192,167.358 218.769 C 167.503 218.346,167.773 217.446,167.959 216.769 C 170.083 209.045,170.380 208.724,171.378 213.077 C 171.572 213.923,171.856 215.100,172.008 215.692 C 172.160 216.285,172.492 217.669,172.744 218.769 C 172.997 219.869,173.770 223.123,174.462 226.000 C 175.154 228.877,175.914 232.062,176.151 233.077 C 176.388 234.092,177.012 236.723,177.538 238.923 C 178.064 241.123,178.699 243.823,178.951 244.923 C 179.202 246.023,179.535 247.408,179.692 248.000 C 179.849 248.592,180.193 250.046,180.456 251.231 C 180.719 252.415,181.066 253.869,181.226 254.462 C 181.482 255.405,182.482 259.629,183.393 263.615 C 184.012 266.321,184.396 267.707,184.499 267.603 C 184.558 267.545,185.152 265.360,185.820 262.749 C 186.489 260.137,187.261 257.169,187.537 256.154 C 187.812 255.138,188.454 252.715,188.963 250.769 C 189.472 248.823,190.236 245.915,190.661 244.308 C 191.086 242.700,191.550 240.900,191.692 240.308 C 191.835 239.715,192.319 237.846,192.767 236.154 C 195.026 227.638,196.026 223.843,197.387 218.615 C 198.004 216.246,198.764 213.338,199.077 212.154 C 199.389 210.969,200.150 208.062,200.767 205.692 C 201.384 203.323,202.215 200.138,202.615 198.615 C 203.015 197.092,203.758 194.254,204.267 192.308 C 204.776 190.362,205.419 187.938,205.695 186.923 C 205.972 185.908,206.661 183.277,207.227 181.077 C 208.527 176.026,209.939 170.634,210.781 167.505 C 211.140 166.169,211.848 163.485,212.353 161.538 C 212.858 159.592,213.436 157.377,213.636 156.615 C 214.430 153.597,215.439 154.556,215.999 158.860 C 216.158 160.079,216.510 162.669,216.783 164.615 C 217.055 166.562,217.405 169.088,217.562 170.231 C 217.718 171.373,217.974 173.242,218.130 174.385 C 218.287 175.527,218.637 178.054,218.910 180.000 C 219.182 181.946,219.548 184.577,219.723 185.846 C 219.898 187.115,220.161 188.985,220.308 190.000 C 220.643 192.327,221.127 195.812,221.718 200.154 C 221.972 202.015,222.312 204.473,222.474 205.615 C 222.782 207.784,223.005 209.398,223.843 215.538 C 224.461 220.066,224.833 222.748,225.218 225.462 C 225.870 230.050,226.143 232.006,226.623 235.538 C 226.899 237.569,227.243 240.062,227.388 241.077 C 227.532 242.092,227.797 244.031,227.977 245.385 C 228.574 249.895,228.857 250.348,230.093 248.776 C 230.423 248.357,232.545 246.041,234.808 243.629 C 237.071 241.218,240.029 238.065,241.380 236.622 C 243.811 234.028,244.316 233.548,244.615 233.548 C 245.329 233.548,246.100 235.247,248.029 241.077 C 248.365 242.092,248.790 243.303,248.972 243.768 L 249.305 244.613 290.729 244.691 L 332.154 244.769 332.308 247.272 L 332.462 249.775 334.615 248.541 C 336.992 247.180,337.151 247.088,342.000 244.302 C 343.862 243.232,345.835 242.144,346.385 241.883 C 347.621 241.298,347.621 241.216,346.383 240.499 C 345.834 240.182,344.969 239.681,344.462 239.386 C 343.068 238.577,334.080 233.090,333.147 232.479 L 332.330 231.944 332.242 235.126 L 332.154 238.308 323.097 238.389 C 318.116 238.434,313.931 238.362,313.798 238.228 C 313.664 238.095,314.493 236.120,315.639 233.839 C 323.182 218.830,325.698 203.201,323.191 186.923 C 322.750 184.057,322.552 183.101,321.825 180.308 C 321.410 178.714,319.997 174.094,319.707 173.385 C 319.569 173.046,319.071 171.800,318.599 170.615 C 316.752 165.972,313.993 160.741,310.877 155.971 L 308.948 153.018 310.320 150.195 C 311.075 148.642,311.692 147.309,311.692 147.233 C 311.692 147.157,312.017 146.364,312.415 145.471 C 312.812 144.577,313.448 143.015,313.829 142.000 C 314.210 140.985,314.633 139.877,314.768 139.538 C 315.731 137.137,316.924 133.159,318.138 128.308 C 320.435 119.126,320.769 116.510,320.769 107.692 C 320.769 99.329,320.680 98.608,318.775 91.538 C 316.002 81.251,306.009 69.547,292.308 60.541 C 288.594 58.100,277.587 52.308,276.662 52.308 C 276.462 52.308,276.059 52.185,275.765 52.036 C 274.910 51.601,273.849 51.182,271.385 50.306 C 270.115 49.855,268.385 49.230,267.538 48.918 C 265.305 48.093,257.481 45.669,254.615 44.914 C 253.262 44.558,251.392 44.060,250.462 43.809 C 247.855 43.105,241.830 41.733,239.231 41.252 C 232.384 39.983,231.618 39.856,226.154 39.075 C 215.108 37.498,196.064 36.624,186.308 37.247 M202.427 80.629 C 216.837 81.923,216.535 81.892,223.077 82.810 C 246.511 86.100,264.329 92.766,272.809 101.416 C 277.825 106.533,277.958 113.105,273.251 123.231 C 271.673 126.625,271.709 126.606,268.625 125.659 C 261.556 123.488,257.664 122.972,248.154 122.946 C 240.107 122.924,239.294 122.987,234.000 124.035 C 220.421 126.722,207.838 133.317,196.086 143.905 C 192.627 147.022,193.073 147.032,189.535 143.766 C 177.439 132.598,165.127 126.469,148.769 123.475 C 145.128 122.809,131.268 122.721,127.385 123.340 C 124.221 123.844,117.892 125.317,116.038 125.980 C 114.178 126.645,114.284 126.704,113.088 124.329 C 109.322 116.851,108.097 108.619,110.200 104.923 C 115.760 95.152,136.669 86.392,163.077 82.770 C 164.515 82.573,166.523 82.292,167.538 82.145 C 168.554 81.998,171.808 81.664,174.769 81.402 C 177.731 81.139,181.400 80.806,182.923 80.661 C 186.967 80.276,198.294 80.257,202.427 80.629 " stroke="none" fill="#7c8c8c" fill-rule="evenodd"></path><path id="path2" d="M0.000 200.000 L 0.000 400.000 200.000 400.000 L 400.000 400.000 400.000 200.000 L 400.000 0.000 200.000 0.000 L 0.000 0.000 0.000 200.000 M216.154 37.487 C 217.508 37.669,220.000 37.975,221.692 38.167 C 225.966 38.653,230.912 39.325,232.923 39.694 C 238.317 40.682,241.615 41.325,243.385 41.732 C 247.928 42.777,254.427 44.406,256.154 44.933 C 257.169 45.243,259.246 45.871,260.769 46.329 C 265.042 47.612,273.667 50.644,276.462 51.847 C 276.969 52.065,278.146 52.564,279.077 52.956 C 296.720 60.379,312.717 75.004,318.209 88.731 C 323.292 101.440,321.637 124.891,314.492 141.385 C 314.346 141.723,313.842 142.969,313.374 144.154 C 312.905 145.338,311.850 147.744,311.030 149.499 C 309.216 153.379,309.202 152.806,311.184 155.812 C 314.056 160.167,316.984 165.612,318.567 169.538 C 318.874 170.300,319.249 171.200,319.401 171.538 C 326.481 187.302,326.087 210.395,318.425 228.823 C 316.995 232.262,314.553 237.138,314.130 237.400 C 313.117 238.025,314.614 238.154,322.923 238.154 L 332.000 238.154 332.000 234.890 C 332.000 232.187,332.076 231.655,332.440 231.795 C 332.682 231.888,335.209 233.378,338.055 235.105 C 340.902 236.833,344.165 238.797,345.308 239.471 C 347.944 241.024,347.944 241.408,345.308 242.863 C 344.165 243.494,342.677 244.331,342.000 244.724 C 341.323 245.116,340.146 245.790,339.385 246.219 C 335.810 248.237,333.974 249.304,333.692 249.527 C 332.286 250.640,332.000 250.308,332.000 247.559 L 332.000 244.923 290.653 244.923 C 257.941 244.923,249.243 244.843,249.006 244.538 C 248.841 244.327,248.041 242.215,247.227 239.846 C 244.852 232.924,245.053 233.115,242.764 235.615 C 241.076 237.460,234.400 244.601,231.259 247.923 C 228.590 250.746,228.232 250.569,227.681 246.154 C 227.544 245.054,227.209 242.562,226.937 240.615 C 226.664 238.669,226.298 236.038,226.123 234.769 C 225.948 233.500,225.685 231.631,225.538 230.615 C 225.392 229.600,225.132 227.731,224.960 226.462 C 223.886 218.537,223.614 216.561,223.349 214.769 C 222.956 212.116,222.579 209.341,222.177 206.154 C 221.995 204.715,221.716 202.708,221.557 201.692 C 221.102 198.790,220.662 195.678,219.842 189.538 C 219.038 183.522,218.603 180.408,218.145 177.385 C 217.992 176.369,217.650 173.877,217.385 171.846 C 217.121 169.815,216.768 167.185,216.601 166.000 C 216.434 164.815,216.153 162.808,215.976 161.538 C 215.070 155.020,214.564 153.865,213.919 156.846 C 213.620 158.231,212.512 162.511,211.063 167.880 C 210.703 169.215,209.995 171.900,209.489 173.846 C 208.375 178.137,207.439 181.721,206.156 186.615 C 205.624 188.646,204.863 191.554,204.465 193.077 C 204.068 194.600,203.305 197.508,202.771 199.538 C 202.236 201.569,201.454 204.546,201.033 206.154 C 200.612 207.762,199.940 210.323,199.540 211.846 C 199.139 213.369,198.326 216.485,197.733 218.769 C 197.140 221.054,196.429 223.754,196.152 224.769 C 195.621 226.716,194.488 231.051,192.775 237.692 C 191.490 242.676,190.041 248.192,189.382 250.615 C 189.105 251.631,188.416 254.262,187.850 256.462 C 187.284 258.662,186.525 261.569,186.163 262.923 C 185.801 264.277,185.369 265.904,185.202 266.538 C 185.031 267.189,184.708 267.692,184.462 267.692 C 184.017 267.692,183.834 267.159,182.933 263.231 C 182.661 262.046,182.311 260.592,182.154 260.000 C 181.997 259.408,181.663 258.023,181.412 256.923 C 181.161 255.823,180.527 253.123,180.003 250.923 C 178.625 245.137,178.145 243.099,177.793 241.538 C 177.620 240.777,177.372 239.808,177.240 239.385 C 177.107 238.962,176.850 237.923,176.667 237.077 C 176.224 235.027,174.821 229.042,174.466 227.692 C 174.311 227.100,173.470 223.569,172.598 219.846 C 170.657 211.564,170.267 210.170,170.058 210.769 C 169.969 211.023,169.663 212.062,169.376 213.077 C 168.299 216.898,167.975 218.026,167.698 218.923 C 167.434 219.778,165.845 225.314,165.202 227.615 C 164.589 229.811,164.326 230.727,163.543 233.385 C 162.611 236.546,162.268 237.737,161.880 239.154 C 161.730 239.704,161.417 240.708,161.185 241.385 L 160.765 242.615 130.459 242.505 C 113.791 242.445,94.207 242.306,86.939 242.198 L 73.725 242.000 72.541 240.000 C 71.367 238.017,67.385 230.076,67.385 229.718 C 67.385 229.616,67.112 228.945,66.778 228.227 C 64.929 224.253,62.693 215.970,61.561 208.907 C 60.279 200.904,61.322 186.170,63.706 178.615 C 66.961 168.300,70.399 160.817,74.575 154.962 L 75.920 153.077 75.149 151.385 C 74.725 150.454,74.060 148.994,73.671 148.141 C 70.073 140.250,66.422 128.929,65.241 122.000 C 64.142 115.549,63.975 113.674,63.966 107.692 C 63.946 92.491,68.036 82.175,77.677 73.118 C 82.277 68.796,95.481 59.077,96.752 59.077 C 96.818 59.077,97.957 58.432,99.282 57.643 C 105.781 53.777,115.707 49.805,125.692 47.075 C 126.200 46.936,127.446 46.595,128.462 46.317 C 141.266 42.810,150.840 40.810,162.923 39.117 C 170.276 38.086,175.694 37.505,181.692 37.102 C 185.275 36.861,213.880 37.181,216.154 37.487 M184.462 80.955 C 183.108 81.091,179.438 81.420,176.308 81.686 C 173.177 81.952,169.715 82.297,168.615 82.453 C 167.515 82.609,165.438 82.893,164.000 83.085 C 133.565 87.143,110.316 98.175,109.593 108.902 C 109.354 112.445,110.705 118.159,112.908 122.927 C 114.347 126.043,114.334 126.035,116.859 125.285 C 127.315 122.180,142.992 121.466,152.154 123.679 C 152.831 123.842,154.613 124.265,156.114 124.618 C 167.723 127.349,180.113 134.257,190.228 143.637 C 193.125 146.324,192.762 146.327,195.635 143.607 C 213.670 126.533,240.262 118.657,262.765 123.725 C 265.724 124.392,266.998 124.714,269.048 125.314 C 271.546 126.044,271.457 126.101,272.964 122.799 C 275.134 118.043,276.506 112.195,276.238 108.849 C 275.374 98.088,251.784 86.945,221.692 83.083 C 220.169 82.888,218.092 82.602,217.077 82.447 C 216.062 82.293,212.738 81.955,209.692 81.696 C 206.646 81.437,202.615 81.088,200.735 80.920 C 196.821 80.571,188.094 80.590,184.462 80.955 M219.054 224.769 C 224.928 267.232,224.598 264.983,224.934 264.860 C 225.068 264.810,228.863 260.719,233.367 255.769 C 237.870 250.819,241.668 246.769,241.806 246.769 C 241.944 246.769,242.668 248.151,243.413 249.841 L 244.769 252.912 273.769 252.918 C 289.719 252.921,302.769 253.027,302.769 253.154 C 302.769 253.281,277.987 278.167,247.697 308.457 L 192.625 363.528 151.025 321.687 C 128.145 298.675,104.919 275.312,99.411 269.769 L 89.397 259.692 71.006 259.692 L 52.615 259.692 52.615 256.308 L 52.615 252.923 109.346 252.923 L 166.077 252.923 167.976 245.308 C 169.021 241.119,170.013 237.173,170.180 236.538 C 170.535 235.195,171.564 234.911,171.852 236.077 C 171.946 236.458,175.124 249.418,178.915 264.878 C 185.356 291.148,185.977 293.544,186.261 293.205 C 186.320 293.135,192.296 269.331,199.540 240.308 C 213.445 184.597,213.108 185.897,213.515 186.335 C 213.659 186.489,216.152 203.785,219.054 224.769 " stroke="none" fill="#fbfbfb" fill-rule="evenodd"></path><path id="path3" d="M183.773 37.144 C 184.241 37.215,184.933 37.213,185.312 37.140 C 185.690 37.067,185.308 37.009,184.462 37.011 C 183.615 37.013,183.306 37.073,183.773 37.144 M207.158 37.144 C 207.626 37.215,208.318 37.213,208.697 37.140 C 209.075 37.067,208.692 37.009,207.846 37.011 C 207.000 37.013,206.690 37.073,207.158 37.144 M178.231 37.451 C 178.696 37.522,179.458 37.522,179.923 37.451 C 180.388 37.381,180.008 37.323,179.077 37.323 C 178.146 37.323,177.765 37.381,178.231 37.451 M212.385 37.451 C 212.850 37.522,213.612 37.522,214.077 37.451 C 214.542 37.381,214.162 37.323,213.231 37.323 C 212.300 37.323,211.919 37.381,212.385 37.451 M175.462 37.751 C 175.758 37.828,176.242 37.828,176.538 37.751 C 176.835 37.673,176.592 37.610,176.000 37.610 C 175.408 37.610,175.165 37.673,175.462 37.751 M171.462 38.058 C 171.758 38.136,172.242 38.136,172.538 38.058 C 172.835 37.981,172.592 37.918,172.000 37.918 C 171.408 37.918,171.165 37.981,171.462 38.058 M219.462 38.058 C 219.758 38.136,220.242 38.136,220.538 38.058 C 220.835 37.981,220.592 37.918,220.000 37.918 C 219.408 37.918,219.165 37.981,219.462 38.058 M164.077 38.981 C 164.373 39.059,164.858 39.059,165.154 38.981 C 165.450 38.904,165.208 38.841,164.615 38.841 C 164.023 38.841,163.781 38.904,164.077 38.981 M226.538 38.981 C 226.835 39.059,227.319 39.059,227.615 38.981 C 227.912 38.904,227.669 38.841,227.077 38.841 C 226.485 38.841,226.242 38.904,226.538 38.981 M126.769 46.783 C 126.432 47.011,126.557 47.040,127.231 46.889 C 128.362 46.636,128.608 46.460,127.821 46.466 C 127.496 46.469,127.023 46.612,126.769 46.783 M107.385 53.385 C 106.962 53.626,106.754 53.824,106.923 53.824 C 107.092 53.824,107.577 53.626,108.000 53.385 C 108.423 53.143,108.631 52.945,108.462 52.945 C 108.292 52.945,107.808 53.143,107.385 53.385 M90.071 63.242 C 89.440 63.671,88.923 64.088,88.923 64.169 C 88.923 64.250,89.477 63.950,90.154 63.502 C 91.229 62.791,91.592 62.462,91.302 62.462 C 91.257 62.462,90.703 62.813,90.071 63.242 M87.538 65.104 L 86.615 65.897 87.615 65.235 C 88.165 64.871,88.615 64.514,88.615 64.441 C 88.615 64.210,88.485 64.291,87.538 65.104 M306.000 71.385 C 307.686 73.077,309.135 74.462,309.219 74.462 C 309.304 74.462,307.994 73.077,306.308 71.385 C 304.622 69.692,303.173 68.308,303.088 68.308 C 303.004 68.308,304.314 69.692,306.000 71.385 M199.154 80.827 C 199.450 80.905,199.935 80.905,200.231 80.827 C 200.527 80.750,200.285 80.687,199.692 80.687 C 199.100 80.687,198.858 80.750,199.154 80.827 M180.854 81.149 C 181.578 81.214,182.686 81.213,183.316 81.147 C 183.946 81.081,183.354 81.027,182.000 81.029 C 180.646 81.030,180.131 81.084,180.854 81.149 M202.700 81.149 C 203.424 81.214,204.532 81.213,205.162 81.147 C 205.792 81.081,205.200 81.027,203.846 81.029 C 202.492 81.030,201.977 81.084,202.700 81.149 M177.615 81.443 C 177.912 81.520,178.396 81.520,178.692 81.443 C 178.988 81.365,178.746 81.302,178.154 81.302 C 177.562 81.302,177.319 81.365,177.615 81.443 M207.154 81.443 C 207.450 81.520,207.935 81.520,208.231 81.443 C 208.527 81.365,208.285 81.302,207.692 81.302 C 207.100 81.302,206.858 81.365,207.154 81.443 M174.081 81.756 C 174.463 81.830,175.017 81.827,175.311 81.750 C 175.605 81.673,175.292 81.613,174.615 81.616 C 173.938 81.619,173.698 81.682,174.081 81.756 M210.696 81.756 C 211.079 81.830,211.632 81.827,211.927 81.750 C 212.221 81.673,211.908 81.613,211.231 81.616 C 210.554 81.619,210.313 81.682,210.696 81.756 M171.462 82.058 C 171.758 82.136,172.242 82.136,172.538 82.058 C 172.835 81.981,172.592 81.918,172.000 81.918 C 171.408 81.918,171.165 81.981,171.462 82.058 M213.308 82.058 C 213.604 82.136,214.088 82.136,214.385 82.058 C 214.681 81.981,214.438 81.918,213.846 81.918 C 213.254 81.918,213.012 81.981,213.308 82.058 M166.388 82.679 C 166.771 82.753,167.325 82.750,167.619 82.673 C 167.913 82.596,167.600 82.536,166.923 82.539 C 166.246 82.543,166.005 82.606,166.388 82.679 M218.231 82.674 C 218.527 82.751,219.012 82.751,219.308 82.674 C 219.604 82.596,219.362 82.533,218.769 82.533 C 218.177 82.533,217.935 82.596,218.231 82.674 M161.615 83.289 C 161.912 83.366,162.396 83.366,162.692 83.289 C 162.988 83.212,162.746 83.148,162.154 83.148 C 161.562 83.148,161.319 83.212,161.615 83.289 M139.231 88.000 C 138.843 88.167,138.786 88.264,139.077 88.264 C 139.331 88.264,139.815 88.145,140.154 88.000 C 140.542 87.833,140.599 87.736,140.308 87.736 C 140.054 87.736,139.569 87.855,139.231 88.000 M245.692 88.000 C 246.031 88.145,246.515 88.264,246.769 88.264 C 247.060 88.264,247.003 88.167,246.615 88.000 C 246.277 87.855,245.792 87.736,245.538 87.736 C 245.248 87.736,245.304 87.833,245.692 88.000 M134.923 89.374 C 133.735 89.918,134.287 89.926,135.692 89.385 C 136.285 89.157,136.562 88.966,136.308 88.960 C 136.054 88.955,135.431 89.141,134.923 89.374 M127.077 92.462 C 126.315 92.869,125.831 93.203,126.000 93.203 C 126.169 93.203,126.931 92.869,127.692 92.462 C 128.454 92.054,128.938 91.720,128.769 91.720 C 128.600 91.720,127.838 92.054,127.077 92.462 M122.692 94.636 C 121.888 95.054,121.231 95.465,121.231 95.550 C 121.231 95.634,121.923 95.352,122.769 94.923 C 123.615 94.494,124.308 94.077,124.308 93.995 C 124.308 93.791,124.335 93.780,122.692 94.636 M262.462 94.452 C 262.715 94.633,264.226 95.575,265.819 96.545 C 268.556 98.211,273.803 102.896,275.202 104.923 C 275.498 105.351,275.466 105.229,275.132 104.650 C 274.217 103.065,270.305 99.258,267.866 97.578 C 266.059 96.334,261.016 93.416,262.462 94.452 M117.907 97.565 C 117.197 98.087,116.615 98.581,116.615 98.661 C 116.615 98.742,117.238 98.360,118.000 97.813 C 119.245 96.919,119.572 96.615,119.291 96.615 C 119.240 96.615,118.617 97.043,117.907 97.565 M113.734 101.154 C 112.426 102.465,111.076 104.023,110.734 104.615 C 110.335 105.306,110.309 105.417,110.661 104.923 C 110.963 104.500,112.382 102.942,113.815 101.462 C 115.247 99.981,116.350 98.769,116.265 98.769 C 116.181 98.769,115.042 99.842,113.734 101.154 M64.078 101.385 C 64.081 102.062,64.144 102.302,64.218 101.919 C 64.291 101.537,64.288 100.983,64.211 100.689 C 64.134 100.395,64.074 100.708,64.078 101.385 M320.994 101.538 C 320.994 102.131,321.058 102.373,321.135 102.077 C 321.213 101.781,321.213 101.296,321.135 101.000 C 321.058 100.704,320.994 100.946,320.994 101.538 M275.880 106.615 C 276.133 107.747,276.309 107.992,276.303 107.205 C 276.300 106.881,276.158 106.408,275.986 106.154 C 275.758 105.817,275.729 105.941,275.880 106.615 M63.764 107.385 C 63.764 107.977,63.827 108.219,63.904 107.923 C 63.982 107.627,63.982 107.142,63.904 106.846 C 63.827 106.550,63.764 106.792,63.764 107.385 M321.001 113.385 C 321.004 114.062,321.067 114.302,321.141 113.919 C 321.214 113.537,321.211 112.983,321.134 112.689 C 321.057 112.395,320.997 112.708,321.001 113.385 M64.084 113.846 C 64.084 114.608,64.144 114.919,64.217 114.538 C 64.290 114.158,64.290 113.535,64.217 113.154 C 64.144 112.773,64.084 113.085,64.084 113.846 M111.714 120.769 C 111.714 120.938,111.912 121.423,112.154 121.846 C 112.396 122.269,112.594 122.477,112.594 122.308 C 112.594 122.138,112.396 121.654,112.154 121.231 C 111.912 120.808,111.714 120.600,111.714 120.769 M273.281 122.013 C 272.765 123.145,272.864 123.386,273.421 122.357 C 273.681 121.877,273.837 121.426,273.766 121.356 C 273.696 121.286,273.477 121.581,273.281 122.013 M253.615 122.674 C 253.912 122.751,254.396 122.751,254.692 122.674 C 254.988 122.596,254.746 122.533,254.154 122.533 C 253.562 122.533,253.319 122.596,253.615 122.674 M128.542 122.987 C 128.925 123.060,129.479 123.058,129.773 122.981 C 130.067 122.904,129.754 122.843,129.077 122.847 C 128.400 122.850,128.159 122.913,128.542 122.987 M145.773 122.987 C 146.156 123.060,146.709 123.058,147.004 122.981 C 147.298 122.904,146.985 122.843,146.308 122.847 C 145.631 122.850,145.390 122.913,145.773 122.987 M239.004 122.987 C 239.386 123.060,239.940 123.058,240.234 122.981 C 240.529 122.904,240.215 122.843,239.538 122.847 C 238.862 122.850,238.621 122.913,239.004 122.987 M256.234 122.987 C 256.617 123.060,257.171 123.058,257.465 122.981 C 257.759 122.904,257.446 122.843,256.769 122.847 C 256.092 122.850,255.852 122.913,256.234 122.987 M124.077 123.597 C 124.373 123.674,124.858 123.674,125.154 123.597 C 125.450 123.519,125.208 123.456,124.615 123.456 C 124.023 123.456,123.781 123.519,124.077 123.597 M271.682 125.251 C 271.411 125.757,271.144 125.850,270.363 125.711 C 269.471 125.551,269.451 125.564,270.134 125.856 C 270.546 126.032,271.056 126.110,271.267 126.028 C 271.652 125.881,272.465 124.615,272.175 124.615 C 272.091 124.615,271.869 124.901,271.682 125.251 M215.308 129.865 C 213.658 130.704,212.308 131.460,212.308 131.544 C 212.308 131.682,218.431 128.715,218.744 128.426 C 219.204 128.001,217.896 128.548,215.308 129.865 M171.385 130.649 C 174.958 132.548,177.823 134.225,179.231 135.242 C 180.407 136.092,180.923 136.383,180.923 136.196 C 180.923 135.703,169.288 128.915,168.464 128.928 C 168.293 128.930,169.608 129.705,171.385 130.649 M209.841 132.859 C 207.447 134.259,204.000 136.578,204.000 136.790 C 204.000 136.874,205.004 136.265,206.231 135.438 C 207.458 134.611,209.258 133.486,210.231 132.938 C 211.740 132.088,212.276 131.692,211.918 131.692 C 211.873 131.692,210.939 132.217,209.841 132.859 M181.538 136.663 C 181.792 136.925,183.315 138.173,184.923 139.437 C 186.531 140.702,188.918 142.730,190.228 143.945 C 193.091 146.600,192.835 146.579,195.180 144.356 C 196.224 143.368,197.552 142.156,198.132 141.664 C 200.266 139.855,201.028 139.044,199.385 140.332 C 198.454 141.062,196.703 142.601,195.494 143.752 C 192.809 146.310,193.117 146.317,190.228 143.637 C 187.486 141.094,180.034 135.113,181.538 136.663 M202.308 138.046 C 201.381 138.874,201.312 138.989,202.027 138.510 C 202.878 137.942,203.948 136.905,203.653 136.935 C 203.590 136.941,202.985 137.441,202.308 138.046 M311.653 156.769 C 311.819 157.108,312.180 157.662,312.456 158.000 L 312.957 158.615 312.655 158.000 C 312.489 157.662,312.127 157.108,311.852 156.769 L 311.351 156.154 311.653 156.769 M217.302 171.077 C 217.302 171.669,217.365 171.912,217.443 171.615 C 217.520 171.319,217.520 170.835,217.443 170.538 C 217.365 170.242,217.302 170.485,217.302 171.077 M217.918 175.692 C 217.918 176.285,217.981 176.527,218.058 176.231 C 218.136 175.935,218.136 175.450,218.058 175.154 C 217.981 174.858,217.918 175.100,217.918 175.692 M323.764 188.923 C 323.764 189.515,323.827 189.758,323.904 189.462 C 323.982 189.165,323.982 188.681,323.904 188.385 C 323.827 188.088,323.764 188.331,323.764 188.923 M220.071 191.077 C 220.071 191.669,220.135 191.912,220.212 191.615 C 220.289 191.319,220.289 190.835,220.212 190.538 C 220.135 190.242,220.071 190.485,220.071 191.077 M61.315 191.692 C 61.315 192.454,61.375 192.765,61.448 192.385 C 61.521 192.004,61.521 191.381,61.448 191.000 C 61.375 190.619,61.315 190.931,61.315 191.692 M324.071 192.308 C 324.071 192.900,324.135 193.142,324.212 192.846 C 324.289 192.550,324.289 192.065,324.212 191.769 C 324.135 191.473,324.071 191.715,324.071 192.308 M324.431 198.615 C 324.431 201.154,324.479 202.151,324.537 200.832 C 324.594 199.513,324.594 197.436,324.536 196.217 C 324.478 194.998,324.430 196.077,324.431 198.615 M61.045 199.077 C 61.045 201.531,61.093 202.535,61.152 201.308 C 61.210 200.081,61.210 198.073,61.152 196.846 C 61.093 195.619,61.045 196.623,61.045 199.077 M61.315 206.462 C 61.315 207.223,61.375 207.535,61.448 207.154 C 61.521 206.773,61.521 206.150,61.448 205.769 C 61.375 205.388,61.315 205.700,61.315 206.462 M222.225 206.769 C 222.225 207.362,222.289 207.604,222.366 207.308 C 222.443 207.012,222.443 206.527,222.366 206.231 C 222.289 205.935,222.225 206.177,222.225 206.769 M222.841 211.385 C 222.841 211.977,222.904 212.219,222.981 211.923 C 223.059 211.627,223.059 211.142,222.981 210.846 C 222.904 210.550,222.841 210.792,222.841 211.385 M196.651 221.898 C 196.631 222.180,196.536 222.665,196.438 222.975 C 196.270 223.509,196.280 223.510,196.613 222.990 C 196.806 222.689,196.902 222.204,196.826 221.913 C 196.701 221.437,196.683 221.435,196.651 221.898 M224.994 226.769 C 224.994 227.362,225.058 227.604,225.135 227.308 C 225.213 227.012,225.213 226.527,225.135 226.231 C 225.058 225.935,224.994 226.177,224.994 226.769 M239.682 238.692 L 238.000 240.462 239.769 238.780 C 241.413 237.217,241.679 236.923,241.451 236.923 C 241.403 236.923,240.607 237.719,239.682 238.692 M192.500 237.704 C 192.394 237.979,192.320 238.435,192.334 238.717 C 192.349 239.000,192.483 238.822,192.632 238.323 C 192.922 237.352,192.819 236.871,192.500 237.704 M176.928 238.333 C 176.930 238.658,177.073 239.131,177.245 239.385 C 177.473 239.722,177.501 239.597,177.351 238.923 C 177.098 237.792,176.921 237.546,176.928 238.333 M227.148 242.154 C 227.148 242.746,227.212 242.988,227.289 242.692 C 227.366 242.396,227.366 241.912,227.289 241.615 C 227.212 241.319,227.148 241.562,227.148 242.154 M235.832 242.846 L 234.615 244.154 235.923 242.938 C 236.642 242.269,237.231 241.680,237.231 241.630 C 237.231 241.397,236.963 241.630,235.832 242.846 M99.943 242.384 C 103.212 242.434,108.474 242.434,111.636 242.384 C 114.798 242.334,112.123 242.293,105.692 242.293 C 99.262 242.294,96.674 242.334,99.943 242.384 M144.615 242.462 L 128.462 242.624 144.520 242.696 C 154.973 242.744,160.645 242.662,160.769 242.462 C 160.874 242.292,160.917 242.187,160.864 242.227 C 160.812 242.267,153.500 242.372,144.615 242.462 M269.769 244.846 C 281.150 244.891,299.773 244.891,311.154 244.846 C 322.535 244.801,313.223 244.765,290.462 244.765 C 267.700 244.765,258.388 244.801,269.769 244.846 M190.330 246.022 C 190.216 246.473,190.183 246.901,190.256 246.974 C 190.328 247.046,190.480 246.737,190.593 246.286 C 190.707 245.835,190.740 245.407,190.667 245.334 C 190.595 245.261,190.443 245.571,190.330 246.022 M227.764 246.769 C 227.764 247.362,227.827 247.604,227.904 247.308 C 227.982 247.012,227.982 246.527,227.904 246.231 C 227.827 245.935,227.764 246.177,227.764 246.769 M231.385 247.538 C 230.637 248.300,230.095 248.923,230.180 248.923 C 230.264 248.923,230.945 248.300,231.692 247.538 C 232.440 246.777,232.982 246.154,232.897 246.154 C 232.813 246.154,232.132 246.777,231.385 247.538 M181.851 258.949 C 181.853 259.273,181.996 259.746,182.168 260.000 C 182.396 260.337,182.425 260.213,182.274 259.538 C 182.021 258.407,181.845 258.162,181.851 258.949 M186.805 259.436 C 186.785 259.719,186.690 260.203,186.592 260.513 C 186.424 261.048,186.433 261.048,186.767 260.529 C 186.960 260.227,187.056 259.743,186.979 259.452 C 186.854 258.975,186.837 258.974,186.805 259.436 M61.791 259.615 C 66.923 259.663,75.230 259.663,80.253 259.615 C 85.275 259.568,81.077 259.529,70.923 259.529 C 60.769 259.529,56.660 259.568,61.791 259.615 M118.308 288.923 C 123.382 294.000,127.604 298.154,127.688 298.154 C 127.773 298.154,123.690 294.000,118.615 288.923 C 113.541 283.846,109.319 279.692,109.235 279.692 C 109.150 279.692,113.233 283.846,118.308 288.923 M176.462 347.385 C 181.536 352.462,185.758 356.615,185.842 356.615 C 185.927 356.615,181.844 352.462,176.769 347.385 C 171.694 342.308,167.473 338.154,167.388 338.154 C 167.304 338.154,171.387 342.308,176.462 347.385 " stroke="none" fill="#c8cdd0" fill-rule="evenodd"></path><path id="path4" d="M187.008 37.149 C 187.732 37.214,188.840 37.213,189.470 37.147 C 190.100 37.081,189.508 37.027,188.154 37.029 C 186.800 37.030,186.284 37.084,187.008 37.149 M203.154 37.147 C 203.788 37.214,204.827 37.214,205.462 37.147 C 206.096 37.081,205.577 37.027,204.308 37.027 C 203.038 37.027,202.519 37.081,203.154 37.147 M181.769 37.456 C 182.488 37.521,183.665 37.521,184.385 37.456 C 185.104 37.391,184.515 37.338,183.077 37.338 C 181.638 37.338,181.050 37.391,181.769 37.456 M207.923 37.456 C 208.642 37.521,209.819 37.521,210.538 37.456 C 211.258 37.391,210.669 37.338,209.231 37.338 C 207.792 37.338,207.204 37.391,207.923 37.456 M177.465 37.756 C 177.848 37.830,178.402 37.827,178.696 37.750 C 178.990 37.673,178.677 37.613,178.000 37.616 C 177.323 37.619,177.082 37.682,177.465 37.756 M213.923 37.751 C 214.219 37.828,214.704 37.828,215.000 37.751 C 215.296 37.673,215.054 37.610,214.462 37.610 C 213.869 37.610,213.627 37.673,213.923 37.751 M173.615 38.067 C 174.081 38.137,174.842 38.137,175.308 38.067 C 175.773 37.996,175.392 37.938,174.462 37.938 C 173.531 37.938,173.150 37.996,173.615 38.067 M216.692 38.067 C 217.158 38.137,217.919 38.137,218.385 38.067 C 218.850 37.996,218.469 37.938,217.538 37.938 C 216.608 37.938,216.227 37.996,216.692 38.067 M161.846 39.385 C 160.808 39.603,160.802 39.611,161.692 39.615 C 162.200 39.618,163.031 39.514,163.538 39.385 C 164.815 39.060,163.390 39.060,161.846 39.385 M229.308 39.597 C 229.604 39.674,230.088 39.674,230.385 39.597 C 230.681 39.519,230.438 39.456,229.846 39.456 C 229.254 39.456,229.012 39.519,229.308 39.597 M157.692 40.000 L 156.462 40.220 157.538 40.233 C 158.131 40.241,158.962 40.135,159.385 40.000 C 160.373 39.683,159.461 39.683,157.692 40.000 M233.308 40.212 C 233.604 40.289,234.088 40.289,234.385 40.212 C 234.681 40.135,234.438 40.071,233.846 40.071 C 233.254 40.071,233.012 40.135,233.308 40.212 M142.000 43.091 C 141.571 43.286,141.758 43.313,142.615 43.183 C 143.292 43.080,143.904 42.944,143.974 42.882 C 144.239 42.649,142.591 42.824,142.000 43.091 M250.000 43.692 C 250.338 43.838,250.823 43.957,251.077 43.957 C 251.368 43.957,251.311 43.859,250.923 43.692 C 250.585 43.547,250.100 43.428,249.846 43.428 C 249.555 43.428,249.612 43.526,250.000 43.692 M252.308 44.294 C 252.562 44.465,253.035 44.608,253.359 44.611 C 254.146 44.617,253.901 44.441,252.769 44.188 C 252.095 44.037,251.971 44.066,252.308 44.294 M303.538 69.231 C 304.372 70.077,305.123 70.769,305.208 70.769 C 305.292 70.769,304.680 70.077,303.846 69.231 C 303.013 68.385,302.262 67.692,302.177 67.692 C 302.092 67.692,302.705 68.385,303.538 69.231 M77.375 73.615 L 75.538 75.538 77.531 73.692 C 78.627 72.677,79.584 71.812,79.659 71.769 C 79.734 71.727,79.664 71.692,79.503 71.692 C 79.343 71.692,78.385 72.558,77.375 73.615 M308.462 74.154 C 309.123 74.831,309.733 75.385,309.817 75.385 C 309.902 75.385,309.430 74.831,308.769 74.154 C 308.108 73.477,307.498 72.923,307.414 72.923 C 307.329 72.923,307.801 73.477,308.462 74.154 M74.596 76.692 L 73.692 77.692 74.692 76.789 C 75.624 75.946,75.834 75.692,75.596 75.692 C 75.543 75.692,75.093 76.142,74.596 76.692 M311.077 77.231 C 311.613 77.908,312.121 78.462,312.206 78.462 C 312.290 78.462,311.921 77.908,311.385 77.231 C 310.848 76.554,310.341 76.000,310.256 76.000 C 310.171 76.000,310.541 76.554,311.077 77.231 M71.633 80.231 C 71.091 80.862,70.684 81.538,70.847 81.538 C 70.910 81.538,71.268 81.123,71.644 80.615 C 72.385 79.612,72.378 79.363,71.633 80.231 M189.154 80.538 C 191.227 80.591,194.619 80.591,196.692 80.538 C 198.765 80.484,197.069 80.441,192.923 80.441 C 188.777 80.441,187.081 80.484,189.154 80.538 M183.308 80.833 C 183.688 80.906,184.312 80.906,184.692 80.833 C 185.073 80.759,184.762 80.699,184.000 80.699 C 183.238 80.699,182.927 80.759,183.308 80.833 M201.154 80.833 C 201.535 80.906,202.158 80.906,202.538 80.833 C 202.919 80.759,202.608 80.699,201.846 80.699 C 201.085 80.699,200.773 80.759,201.154 80.833 M178.081 81.141 C 178.463 81.214,179.017 81.211,179.311 81.134 C 179.605 81.057,179.292 80.997,178.615 81.001 C 177.938 81.004,177.698 81.067,178.081 81.141 M206.696 81.141 C 207.079 81.214,207.632 81.211,207.927 81.134 C 208.221 81.057,207.908 80.997,207.231 81.001 C 206.554 81.004,206.313 81.067,206.696 81.141 M175.308 81.448 C 175.688 81.521,176.312 81.521,176.692 81.448 C 177.073 81.375,176.762 81.315,176.000 81.315 C 175.238 81.315,174.927 81.375,175.308 81.448 M209.154 81.448 C 209.535 81.521,210.158 81.521,210.538 81.448 C 210.919 81.375,210.608 81.315,209.846 81.315 C 209.085 81.315,208.773 81.375,209.154 81.448 M171.927 81.756 C 172.309 81.830,172.863 81.827,173.157 81.750 C 173.452 81.673,173.138 81.613,172.462 81.616 C 171.785 81.619,171.544 81.682,171.927 81.756 M212.692 81.751 C 212.988 81.828,213.473 81.828,213.769 81.751 C 214.065 81.673,213.823 81.610,213.231 81.610 C 212.638 81.610,212.396 81.673,212.692 81.751 M169.154 82.063 C 169.535 82.137,170.158 82.137,170.538 82.063 C 170.919 81.990,170.608 81.930,169.846 81.930 C 169.085 81.930,168.773 81.990,169.154 82.063 M215.308 82.063 C 215.688 82.137,216.312 82.137,216.692 82.063 C 217.073 81.990,216.762 81.930,216.000 81.930 C 215.238 81.930,214.927 81.990,215.308 82.063 M162.923 82.785 C 162.316 82.950,162.632 82.977,163.846 82.864 C 164.862 82.769,165.750 82.640,165.821 82.577 C 166.049 82.371,163.872 82.527,162.923 82.785 M219.718 82.575 C 219.788 82.637,220.746 82.764,221.846 82.858 C 223.106 82.965,223.505 82.937,222.923 82.781 C 221.983 82.530,219.485 82.369,219.718 82.575 M158.923 83.385 C 158.100 83.594,158.083 83.619,158.769 83.619 C 159.192 83.619,159.954 83.514,160.462 83.385 C 161.285 83.175,161.302 83.150,160.615 83.150 C 160.192 83.150,159.431 83.255,158.923 83.385 M225.385 83.402 C 226.943 83.725,228.203 83.710,226.923 83.385 C 226.415 83.255,225.585 83.149,225.077 83.149 C 224.301 83.148,224.350 83.188,225.385 83.402 M147.846 85.538 C 147.062 85.875,147.871 85.875,148.923 85.538 C 149.541 85.340,149.572 85.290,149.077 85.283 C 148.738 85.278,148.185 85.393,147.846 85.538 M236.923 85.538 C 237.975 85.875,238.784 85.875,238.000 85.538 C 237.662 85.393,237.108 85.278,236.769 85.283 C 236.275 85.290,236.305 85.340,236.923 85.538 M239.538 86.154 C 239.877 86.299,240.431 86.414,240.769 86.409 C 241.264 86.402,241.234 86.352,240.615 86.154 C 239.563 85.817,238.754 85.817,239.538 86.154 M142.308 86.935 C 141.094 87.354,141.092 87.358,142.154 87.179 C 143.409 86.967,144.692 86.498,144.000 86.505 C 143.746 86.507,142.985 86.700,142.308 86.935 M243.231 87.077 C 243.569 87.222,244.054 87.341,244.308 87.341 C 244.599 87.341,244.542 87.244,244.154 87.077 C 243.815 86.931,243.331 86.812,243.077 86.812 C 242.786 86.812,242.843 86.910,243.231 87.077 M136.923 88.462 C 136.331 88.690,136.054 88.876,136.308 88.876 C 136.562 88.876,137.254 88.690,137.846 88.462 C 138.438 88.233,138.715 88.047,138.462 88.047 C 138.208 88.047,137.515 88.233,136.923 88.462 M249.978 89.097 C 251.658 89.674,253.086 90.094,253.151 90.028 C 253.291 89.889,247.680 87.989,247.230 88.023 C 247.061 88.036,248.298 88.519,249.978 89.097 M133.385 89.703 C 132.615 90.074,132.590 90.116,133.231 89.960 C 134.103 89.747,135.083 89.247,134.615 89.254 C 134.446 89.256,133.892 89.459,133.385 89.703 M129.692 91.060 C 129.015 91.380,128.600 91.643,128.769 91.645 C 129.189 91.647,131.617 90.511,131.231 90.492 C 131.062 90.484,130.369 90.740,129.692 91.060 M254.487 90.583 C 254.558 90.650,255.515 91.079,256.615 91.536 C 265.225 95.116,272.848 100.625,275.459 105.152 C 275.923 105.957,276.304 106.469,276.305 106.291 C 276.315 105.000,272.144 100.319,268.769 97.835 C 265.344 95.313,252.708 88.897,254.487 90.583 M318.774 91.564 C 318.777 91.888,318.919 92.362,319.091 92.615 C 319.319 92.952,319.348 92.828,319.197 92.154 C 318.944 91.022,318.768 90.777,318.774 91.564 M126.462 92.462 C 125.700 92.869,125.215 93.203,125.385 93.203 C 125.554 93.203,126.315 92.869,127.077 92.462 C 127.838 92.054,128.323 91.720,128.154 91.720 C 127.985 91.720,127.223 92.054,126.462 92.462 M122.172 94.635 C 116.911 97.460,112.111 101.585,110.204 104.923 C 109.231 106.626,108.787 112.156,109.483 113.912 C 109.598 114.203,109.644 112.724,109.584 110.626 C 109.413 104.586,112.691 100.367,121.385 95.436 C 124.514 93.661,125.143 93.273,124.923 93.254 C 124.838 93.247,123.601 93.868,122.172 94.635 M319.428 93.846 C 319.428 94.100,319.547 94.585,319.692 94.923 C 319.859 95.311,319.957 95.368,319.957 95.077 C 319.957 94.823,319.838 94.338,319.692 94.000 C 319.526 93.612,319.428 93.555,319.428 93.846 M64.126 107.538 C 64.126 110.415,64.172 111.634,64.229 110.246 C 64.286 108.858,64.286 106.504,64.229 105.015 C 64.173 103.526,64.126 104.662,64.126 107.538 M321.048 107.385 C 321.048 110.177,321.095 111.319,321.152 109.923 C 321.209 108.527,321.209 106.242,321.152 104.846 C 321.095 103.450,321.048 104.592,321.048 107.385 M276.368 109.692 C 276.330 111.385,276.228 113.115,276.141 113.538 L 275.983 114.308 276.309 113.561 C 276.493 113.140,276.592 111.463,276.537 109.715 L 276.437 106.615 276.368 109.692 M320.687 114.154 C 320.687 114.746,320.750 114.988,320.827 114.692 C 320.905 114.396,320.905 113.912,320.827 113.615 C 320.750 113.319,320.687 113.562,320.687 114.154 M275.730 115.231 C 275.705 115.569,275.613 116.192,275.526 116.615 L 275.367 117.385 275.697 116.630 C 275.878 116.215,275.970 115.592,275.901 115.245 C 275.779 114.632,275.775 114.631,275.730 115.231 M64.687 117.538 C 64.687 118.131,64.750 118.373,64.827 118.077 C 64.905 117.781,64.905 117.296,64.827 117.000 C 64.750 116.704,64.687 116.946,64.687 117.538 M110.499 117.846 C 110.494 118.100,110.679 118.723,110.912 119.231 C 111.456 120.419,111.464 119.866,110.923 118.462 C 110.695 117.869,110.504 117.592,110.499 117.846 M274.188 120.342 C 273.998 120.886,273.897 121.384,273.963 121.450 C 274.029 121.516,274.238 121.125,274.427 120.581 C 274.617 120.037,274.718 119.539,274.652 119.473 C 274.587 119.407,274.378 119.798,274.188 120.342 M65.292 121.385 C 65.292 121.723,65.403 122.346,65.538 122.769 C 65.734 123.378,65.785 123.410,65.785 122.923 C 65.785 122.585,65.674 121.962,65.538 121.538 C 65.343 120.929,65.292 120.897,65.292 121.385 M111.718 121.385 C 111.718 121.554,111.983 122.177,112.308 122.769 C 112.632 123.362,112.897 123.708,112.897 123.538 C 112.897 123.369,112.632 122.746,112.308 122.154 C 111.983 121.562,111.718 121.215,111.718 121.385 M272.752 123.729 C 272.258 124.761,271.580 125.798,271.244 126.033 C 270.907 126.269,270.780 126.462,270.961 126.462 C 271.588 126.462,274.154 122.359,273.768 121.973 C 273.702 121.907,273.245 122.697,272.752 123.729 M134.831 122.690 C 136.303 122.747,138.795 122.747,140.369 122.691 C 141.943 122.635,140.738 122.589,137.692 122.589 C 134.646 122.588,133.358 122.634,134.831 122.690 M245.308 122.691 C 246.788 122.747,249.212 122.747,250.692 122.691 C 252.173 122.634,250.962 122.588,248.000 122.588 C 245.038 122.588,243.827 122.634,245.308 122.691 M130.538 122.981 C 130.835 123.059,131.319 123.059,131.615 122.981 C 131.912 122.904,131.669 122.841,131.077 122.841 C 130.485 122.841,130.242 122.904,130.538 122.981 M143.769 122.981 C 144.065 123.059,144.550 123.059,144.846 122.981 C 145.142 122.904,144.900 122.841,144.308 122.841 C 143.715 122.841,143.473 122.904,143.769 122.981 M241.000 122.981 C 241.296 123.059,241.781 123.059,242.077 122.981 C 242.373 122.904,242.131 122.841,241.538 122.841 C 240.946 122.841,240.704 122.904,241.000 122.981 M254.081 122.987 C 254.463 123.060,255.017 123.058,255.311 122.981 C 255.605 122.904,255.292 122.843,254.615 122.847 C 253.938 122.850,253.698 122.913,254.081 122.987 M147.103 123.191 C 147.173 123.254,147.923 123.386,148.769 123.483 C 149.807 123.603,150.057 123.576,149.538 123.400 C 148.770 123.138,146.860 122.975,147.103 123.191 M236.308 123.385 C 235.274 123.716,236.391 123.716,237.692 123.385 C 238.521 123.174,238.537 123.149,237.846 123.144 C 237.423 123.141,236.731 123.249,236.308 123.385 M151.538 123.986 C 152.129 124.253,153.777 124.428,153.513 124.195 C 153.442 124.132,152.831 123.997,152.154 123.894 C 151.296 123.764,151.110 123.791,151.538 123.986 M262.000 123.986 C 262.591 124.253,264.239 124.428,263.974 124.195 C 263.904 124.132,263.292 123.997,262.615 123.894 C 261.758 123.764,261.571 123.791,262.000 123.986 M113.538 125.231 C 114.184 126.497,114.478 126.629,115.538 126.127 C 116.046 125.888,116.004 125.866,115.302 126.003 C 114.574 126.144,114.356 126.010,113.810 125.084 C 112.942 123.613,112.763 123.710,113.538 125.231 M318.923 124.923 C 318.806 125.455,318.775 125.954,318.853 126.033 C 318.932 126.111,319.084 125.733,319.192 125.192 C 319.449 123.910,319.200 123.661,318.923 124.923 M66.034 125.077 C 66.287 126.208,66.463 126.454,66.457 125.667 C 66.454 125.342,66.312 124.869,66.140 124.615 C 65.912 124.278,65.883 124.403,66.034 125.077 M267.692 125.385 C 268.285 125.613,268.977 125.799,269.231 125.799 C 269.485 125.799,269.208 125.613,268.615 125.385 C 268.023 125.157,267.331 124.970,267.077 124.970 C 266.823 124.970,267.100 125.157,267.692 125.385 M226.000 125.846 C 225.154 126.158,224.669 126.414,224.923 126.414 C 225.177 126.414,226.077 126.158,226.923 125.846 C 227.769 125.534,228.254 125.278,228.000 125.278 C 227.746 125.278,226.846 125.534,226.000 125.846 M222.923 126.934 C 222.154 127.305,222.128 127.347,222.769 127.190 C 223.641 126.977,224.621 126.478,224.154 126.485 C 223.985 126.487,223.431 126.689,222.923 126.934 M165.538 128.154 C 165.962 128.396,166.446 128.594,166.615 128.594 C 166.785 128.594,166.577 128.396,166.154 128.154 C 165.731 127.912,165.246 127.714,165.077 127.714 C 164.908 127.714,165.115 127.912,165.538 128.154 M215.499 130.137 C 211.148 132.315,205.259 135.949,202.117 138.393 C 200.916 139.328,197.791 141.891,197.537 142.150 C 196.024 143.691,193.204 146.154,192.952 146.154 C 192.769 146.154,191.477 145.099,190.079 143.810 C 187.623 141.544,181.558 136.657,180.615 136.184 C 179.997 135.875,180.978 136.698,183.877 138.923 C 185.200 139.938,187.672 142.049,189.372 143.614 C 193.103 147.049,192.621 147.028,196.086 143.905 C 203.031 137.648,208.244 134.051,215.813 130.292 C 218.692 128.862,220.898 127.692,220.715 127.692 C 220.532 127.692,218.184 128.792,215.499 130.137 M318.038 128.654 C 317.782 129.936,318.031 130.185,318.308 128.923 C 318.425 128.391,318.456 127.892,318.378 127.813 C 318.299 127.735,318.147 128.113,318.038 128.654 M170.661 130.589 C 173.925 132.302,176.669 133.875,179.385 135.590 L 180.154 136.076 179.385 135.425 C 177.882 134.154,167.949 128.606,167.203 128.621 C 167.049 128.624,168.605 129.510,170.661 130.589 M76.024 152.899 C 76.011 153.139,75.763 153.624,75.473 153.976 C 74.976 154.579,74.987 154.578,75.663 153.955 C 76.058 153.592,76.306 153.107,76.214 152.878 C 76.080 152.541,76.044 152.545,76.024 152.899 M214.051 155.282 C 213.938 155.395,213.848 155.637,213.851 155.821 C 213.854 156.046,213.929 156.041,214.082 155.805 C 214.206 155.613,214.585 155.387,214.923 155.302 C 215.518 155.153,215.517 155.147,214.897 155.113 C 214.545 155.093,214.164 155.169,214.051 155.282 M73.963 156.077 C 72.904 157.874,72.835 158.027,73.375 157.385 C 74.000 156.640,74.538 155.692,74.337 155.692 C 74.256 155.692,74.088 155.865,73.963 156.077 M215.764 158.462 C 215.764 159.054,215.827 159.296,215.904 159.000 C 215.982 158.704,215.982 158.219,215.904 157.923 C 215.827 157.627,215.764 157.869,215.764 158.462 M213.115 158.320 C 213.009 158.595,212.935 159.051,212.950 159.333 C 212.964 159.615,213.098 159.438,213.247 158.939 C 213.537 157.967,213.435 157.487,213.115 158.320 M212.343 161.283 C 212.324 161.565,212.228 162.049,212.131 162.359 C 211.963 162.894,211.972 162.894,212.305 162.375 C 212.499 162.073,212.594 161.589,212.518 161.298 C 212.393 160.822,212.376 160.820,212.343 161.283 M216.379 163.077 C 216.379 163.669,216.442 163.912,216.520 163.615 C 216.597 163.319,216.597 162.835,216.520 162.538 C 216.442 162.242,216.379 162.485,216.379 163.077 M209.407 172.484 C 209.293 172.934,209.260 173.363,209.333 173.435 C 209.405 173.508,209.557 173.198,209.670 172.747 C 209.784 172.296,209.817 171.868,209.744 171.796 C 209.672 171.723,209.520 172.033,209.407 172.484 M217.747 173.077 C 217.845 173.923,217.976 174.673,218.039 174.744 C 218.256 174.986,218.092 173.076,217.831 172.308 C 217.655 171.789,217.627 172.039,217.747 173.077 M208.192 177.089 C 208.086 177.364,208.012 177.820,208.026 178.102 C 208.041 178.384,208.175 178.207,208.324 177.708 C 208.614 176.737,208.511 176.256,208.192 177.089 M218.539 178.615 C 218.543 179.292,218.606 179.533,218.679 179.150 C 218.753 178.768,218.750 178.214,218.673 177.919 C 218.596 177.625,218.536 177.938,218.539 178.615 M207.269 180.654 C 207.161 181.194,207.130 181.694,207.199 181.763 C 207.269 181.833,207.422 181.455,207.538 180.923 C 207.655 180.391,207.687 179.892,207.608 179.813 C 207.530 179.735,207.377 180.113,207.269 180.654 M63.420 180.359 C 63.401 180.642,63.305 181.126,63.208 181.436 C 63.040 181.971,63.049 181.971,63.382 181.452 C 63.575 181.150,63.671 180.666,63.595 180.375 C 63.470 179.899,63.452 179.897,63.420 180.359 M322.197 181.846 C 322.197 182.100,322.316 182.585,322.462 182.923 C 322.628 183.311,322.726 183.368,322.726 183.077 C 322.726 182.823,322.607 182.338,322.462 182.000 C 322.295 181.612,322.197 181.555,322.197 181.846 M61.924 188.462 C 61.927 189.138,61.990 189.379,62.064 188.996 C 62.137 188.614,62.135 188.060,62.058 187.766 C 61.981 187.471,61.920 187.785,61.924 188.462 M323.780 191.231 C 323.783 192.077,323.842 192.387,323.913 191.919 C 323.984 191.451,323.982 190.759,323.909 190.380 C 323.836 190.002,323.778 190.385,323.780 191.231 M204.484 191.253 C 204.370 191.704,204.337 192.132,204.410 192.204 C 204.482 192.277,204.634 191.967,204.747 191.516 C 204.860 191.066,204.894 190.637,204.821 190.565 C 204.749 190.492,204.597 190.802,204.484 191.253 M61.361 199.077 C 61.361 202.546,61.405 203.965,61.460 202.231 C 61.515 200.496,61.515 197.658,61.460 195.923 C 61.405 194.188,61.361 195.608,61.361 199.077 M220.693 194.000 C 220.696 194.677,220.759 194.918,220.833 194.535 C 220.907 194.152,220.904 193.598,220.827 193.304 C 220.750 193.010,220.690 193.323,220.693 194.000 M324.088 194.615 C 324.090 195.462,324.150 195.771,324.221 195.303 C 324.292 194.836,324.290 194.143,324.217 193.765 C 324.144 193.387,324.086 193.769,324.088 194.615 M203.269 195.858 C 203.163 196.133,203.089 196.589,203.103 196.871 C 203.118 197.154,203.252 196.976,203.401 196.477 C 203.691 195.506,203.588 195.025,203.269 195.858 M221.308 198.615 C 221.312 199.292,221.375 199.533,221.448 199.150 C 221.522 198.768,221.519 198.214,221.442 197.919 C 221.365 197.625,221.305 197.938,221.308 198.615 M324.092 202.769 C 324.092 203.700,324.150 204.081,324.220 203.615 C 324.291 203.150,324.291 202.388,324.220 201.923 C 324.150 201.458,324.092 201.838,324.092 202.769 M222.055 204.154 C 222.153 205.000,222.284 205.750,222.347 205.821 C 222.563 206.063,222.400 204.153,222.139 203.385 C 221.962 202.866,221.935 203.116,222.055 204.154 M323.785 206.154 C 323.785 207.085,323.842 207.465,323.913 207.000 C 323.983 206.535,323.983 205.773,323.913 205.308 C 323.842 204.842,323.785 205.223,323.785 206.154 M222.677 208.615 C 222.774 209.546,222.903 210.365,222.965 210.436 C 223.180 210.682,223.013 208.455,222.759 207.692 C 222.593 207.196,222.564 207.523,222.677 208.615 M61.924 209.692 C 61.927 210.369,61.990 210.610,62.064 210.227 C 62.137 209.844,62.135 209.291,62.058 208.996 C 61.981 208.702,61.920 209.015,61.924 209.692 M323.148 211.077 C 323.148 211.669,323.212 211.912,323.289 211.615 C 323.366 211.319,323.366 210.835,323.289 210.538 C 323.212 210.242,323.148 210.485,323.148 211.077 M171.120 212.923 C 171.120 213.177,171.239 213.662,171.385 214.000 C 171.551 214.388,171.649 214.445,171.649 214.154 C 171.649 213.900,171.530 213.415,171.385 213.077 C 171.218 212.689,171.120 212.632,171.120 212.923 M223.462 214.000 C 223.466 214.677,223.529 214.918,223.602 214.535 C 223.676 214.152,223.673 213.598,223.596 213.304 C 223.519 213.010,223.459 213.323,223.462 214.000 M168.484 214.637 C 168.370 215.088,168.337 215.517,168.410 215.589 C 168.482 215.662,168.634 215.352,168.747 214.901 C 168.860 214.450,168.894 214.022,168.821 213.949 C 168.749 213.877,168.597 214.186,168.484 214.637 M198.346 214.627 C 198.240 214.902,198.166 215.358,198.180 215.641 C 198.195 215.923,198.329 215.745,198.478 215.246 C 198.768 214.275,198.665 213.794,198.346 214.627 M322.330 214.945 C 322.216 215.396,322.183 215.824,322.256 215.897 C 322.328 215.969,322.480 215.660,322.593 215.209 C 322.707 214.758,322.740 214.330,322.667 214.257 C 322.595 214.185,322.443 214.494,322.330 214.945 M171.880 216.154 C 172.133 217.285,172.309 217.531,172.303 216.744 C 172.300 216.419,172.158 215.946,171.986 215.692 C 171.758 215.355,171.729 215.480,171.880 216.154 M63.120 216.308 C 63.120 216.562,63.239 217.046,63.385 217.385 C 63.551 217.773,63.649 217.829,63.649 217.538 C 63.649 217.285,63.530 216.800,63.385 216.462 C 63.218 216.074,63.120 216.017,63.120 216.308 M321.730 217.397 C 321.625 217.671,321.550 218.127,321.565 218.410 C 321.579 218.692,321.713 218.515,321.862 218.015 C 322.152 217.044,322.050 216.564,321.730 217.397 M197.407 218.330 C 197.293 218.781,197.260 219.209,197.333 219.281 C 197.405 219.354,197.557 219.044,197.670 218.593 C 197.784 218.142,197.817 217.714,197.744 217.642 C 197.672 217.569,197.520 217.879,197.407 218.330 M224.994 224.923 C 224.994 225.515,225.058 225.758,225.135 225.462 C 225.213 225.165,225.213 224.681,225.135 224.385 C 225.058 224.088,224.994 224.331,224.994 224.923 M318.667 227.128 C 318.388 227.837,318.211 228.467,318.272 228.529 C 318.334 228.591,318.615 228.064,318.897 227.359 C 319.180 226.654,319.357 226.024,319.292 225.958 C 319.226 225.893,318.945 226.419,318.667 227.128 M174.514 227.077 C 174.530 227.876,175.014 229.190,175.025 228.462 C 175.030 228.123,174.915 227.569,174.769 227.231 C 174.607 226.854,174.508 226.794,174.514 227.077 M225.616 229.385 C 225.619 230.062,225.682 230.302,225.756 229.919 C 225.830 229.537,225.827 228.983,225.750 228.689 C 225.673 228.395,225.613 228.708,225.616 229.385 M175.437 230.923 C 175.432 231.262,175.547 231.815,175.692 232.154 C 176.029 232.938,176.029 232.129,175.692 231.077 C 175.494 230.459,175.444 230.428,175.437 230.923 M315.909 233.393 C 315.455 234.319,315.149 235.077,315.229 235.077 C 315.436 235.077,316.988 231.962,316.850 231.824 C 316.787 231.761,316.364 232.467,315.909 233.393 M332.205 231.897 C 332.092 232.010,332.000 233.462,332.000 235.124 L 332.000 238.145 322.846 238.233 L 313.692 238.322 322.923 238.315 L 332.154 238.308 332.242 235.142 C 332.304 232.904,332.430 232.039,332.674 232.190 C 332.883 232.319,332.932 232.264,332.799 232.048 C 332.544 231.635,332.483 231.620,332.205 231.897 M193.423 233.397 C 193.317 233.671,193.243 234.127,193.257 234.410 C 193.272 234.692,193.406 234.515,193.555 234.015 C 193.845 233.044,193.742 232.564,193.423 233.397 M176.043 233.538 C 176.043 233.792,176.162 234.277,176.308 234.615 C 176.474 235.003,176.572 235.060,176.572 234.769 C 176.572 234.515,176.453 234.031,176.308 233.692 C 176.141 233.304,176.043 233.248,176.043 233.538 M226.225 234.154 C 226.225 234.746,226.289 234.988,226.366 234.692 C 226.443 234.396,226.443 233.912,226.366 233.615 C 226.289 233.319,226.225 233.562,226.225 234.154 M240.914 237.154 L 238.923 239.231 241.000 237.240 C 242.929 235.390,243.218 235.077,242.991 235.077 C 242.944 235.077,242.009 236.012,240.914 237.154 M70.615 236.308 C 70.878 236.815,71.162 237.231,71.247 237.231 C 71.331 237.231,71.186 236.815,70.923 236.308 C 70.661 235.800,70.377 235.385,70.292 235.385 C 70.207 235.385,70.353 235.800,70.615 236.308 M162.346 235.858 C 162.240 236.133,162.166 236.589,162.180 236.871 C 162.195 237.154,162.329 236.976,162.478 236.477 C 162.768 235.506,162.665 235.025,162.346 235.858 M236.615 241.692 C 235.868 242.454,235.326 243.077,235.410 243.077 C 235.495 243.077,236.176 242.454,236.923 241.692 C 237.670 240.931,238.213 240.308,238.128 240.308 C 238.044 240.308,237.363 240.931,236.615 241.692 M191.269 241.704 C 191.163 241.979,191.089 242.435,191.103 242.717 C 191.118 243.000,191.252 242.822,191.401 242.323 C 191.691 241.352,191.588 240.871,191.269 241.704 M83.462 242.077 C 88.665 242.124,97.181 242.124,102.385 242.077 C 107.588 242.029,103.331 241.991,92.923 241.991 C 82.515 241.991,78.258 242.029,83.462 242.077 M124.406 242.384 C 128.437 242.433,134.944 242.433,138.867 242.384 C 142.790 242.336,139.492 242.296,131.538 242.296 C 123.585 242.296,120.375 242.336,124.406 242.384 M227.764 244.923 C 227.764 245.515,227.827 245.758,227.904 245.462 C 227.982 245.165,227.982 244.681,227.904 244.385 C 227.827 244.088,227.764 244.331,227.764 244.923 M232.453 246.231 L 230.308 248.462 232.538 246.316 C 234.610 244.323,234.910 244.000,234.684 244.000 C 234.637 244.000,233.633 245.004,232.453 246.231 M331.945 247.182 C 332.044 249.669,332.326 250.563,332.782 249.825 C 332.934 249.579,332.892 249.521,332.663 249.663 C 332.406 249.822,332.308 249.203,332.308 247.421 C 332.308 246.067,332.204 244.895,332.077 244.816 C 331.950 244.737,331.891 245.802,331.945 247.182 M340.538 245.099 C 339.388 245.723,339.458 245.983,340.615 245.385 C 341.123 245.122,341.538 244.842,341.538 244.761 C 341.538 244.563,341.505 244.574,340.538 245.099 M179.572 248.462 C 179.825 249.593,180.002 249.838,179.995 249.051 C 179.993 248.727,179.850 248.254,179.678 248.000 C 179.450 247.663,179.422 247.787,179.572 248.462 M181.111 254.923 C 181.364 256.054,181.540 256.300,181.534 255.513 C 181.531 255.188,181.388 254.715,181.217 254.462 C 180.989 254.124,180.960 254.249,181.111 254.923 M187.560 255.868 C 187.447 256.319,187.414 256.747,187.487 256.820 C 187.559 256.892,187.711 256.583,187.824 256.132 C 187.937 255.681,187.971 255.253,187.898 255.180 C 187.826 255.108,187.674 255.417,187.560 255.868 M183.120 263.385 C 183.120 263.638,183.239 264.123,183.385 264.462 C 183.551 264.849,183.649 264.906,183.649 264.615 C 183.649 264.362,183.530 263.877,183.385 263.538 C 183.218 263.151,183.120 263.094,183.120 263.385 M131.385 302.000 C 133.495 304.115,135.291 305.846,135.375 305.846 C 135.460 305.846,133.803 304.115,131.692 302.000 C 129.582 299.885,127.786 298.154,127.702 298.154 C 127.617 298.154,129.274 299.885,131.385 302.000 M188.918 359.769 C 190.691 361.588,192.180 363.077,192.225 363.077 C 192.447 363.077,192.072 362.683,189.000 359.687 L 185.692 356.462 188.918 359.769 " stroke="none" fill="#b4bcbe" fill-rule="evenodd"></path></g></svg>